<?xml version="1.0" standalone="no"?>
<!DOCTYPE svg PUBLIC "-//W3C//DTD SVG 20010904//EN"
 "http://www.w3.org/TR/2001/REC-SVG-20010904/DTD/svg10.dtd">
<svg version="1.0" xmlns="http://www.w3.org/2000/svg"
 width="260.000000pt" height="260.000000pt" viewBox="0 0 260.000000 260.000000"
 preserveAspectRatio="xMidYMid meet">
<metadata>
Created by potrace 1.14, written by Peter Selinger 2001-2017
</metadata>
<g transform="translate(0.000000,260.000000) scale(0.100000,-0.100000)"
fill="#000000" stroke="none">
<path d="M306 2589 c-62 -15 -153 -68 -197 -116 -22 -24 -55 -74 -72 -111
l-32 -67 0 -990 c0 -918 1 -994 18 -1040 38 -109 142 -208 256 -245 65 -21 74
-21 1041 -18 1091 3 1012 -2 1115 76 67 51 119 122 144 199 21 63 21 76 21
1016 0 1048 1 1021 -61 1119 -42 65 -100 115 -178 152 l-66 31 -975 2 c-566 1
-991 -3 -1014 -8z m1500 -647 c62 -32 97 -65 129 -124 27 -47 30 -62 30 -138
-1 -242 -173 -507 -401 -620 -57 -28 -62 -33 -68 -70 -11 -68 -45 -147 -91
-209 -49 -67 -149 -151 -179 -151 -27 0 -56 29 -56 55 0 12 -7 45 -16 75 l-16
53 -41 -41 c-99 -95 -215 -142 -352 -142 -109 0 -115 6 -115 109 0 138 42 247
133 347 l48 53 -52 15 c-29 9 -62 16 -73 16 -24 0 -56 28 -56 50 0 27 54 102
109 152 63 57 154 104 233 120 l59 12 42 81 c48 94 168 220 259 274 175 102
370 136 474 83z"/>
<path d="M1585 1855 c-126 -27 -262 -108 -350 -207 -25 -29 -67 -94 -91 -145
l-45 -92 -47 -6 c-94 -13 -185 -52 -247 -106 -40 -35 -38 -41 20 -59 167 -51
348 -230 411 -405 9 -27 20 -54 24 -58 10 -11 72 66 103 129 21 41 46 143 47
186 0 4 37 25 83 46 188 91 316 249 363 450 30 128 -1 218 -88 261 -50 24 -96
25 -183 6z m12 -215 c74 -45 83 -139 19 -197 -31 -28 -43 -33 -87 -33 -45 0
-55 4 -85 34 -29 29 -34 41 -34 80 0 60 20 99 62 119 44 22 86 21 125 -3z"/>
<path d="M1511 1546 c-9 -11 -8 -18 5 -31 15 -15 19 -15 32 -1 17 17 10 46
-11 46 -8 0 -20 -6 -26 -14z"/>
<path d="M871 1054 c-81 -70 -141 -189 -141 -281 l0 -43 43 0 c56 0 145 30
200 69 52 35 107 96 107 117 0 17 -76 102 -131 145 l-36 28 -42 -35z"/>
</g>
</svg>
